<?xml version="1.0" encoding="UTF-8" standalone="no"?><!DOCTYPE svg PUBLIC "-//W3C//DTD SVG 1.1//EN" "http://www.w3.org/Graphics/SVG/1.1/DTD/svg11.dtd">
<svg width="100%" height="100%" viewBox="0 0 5909 1134" version="1.1"
    xmlns="http://www.w3.org/2000/svg"
    xmlns:xlink="http://www.w3.org/1999/xlink" xml:space="preserve"
    xmlns:serif="http://www.serif.com/" style="fill-rule:evenodd;clip-rule:evenodd;stroke-linejoin:round;stroke-miterlimit:2;">
    <rect id="HIIIO" x="0" y="0" width="5908.33" height="1130.08" style="fill:none;"/>
    <clipPath id="_clip1">
        <rect id="HIIIO1" serif:id="HIIIO" x="0" y="0" width="5908.33" height="1130.08"/>
    </clipPath>
    <g clip-path="url(#_clip1)">
        <g>
            <path d="M2526.17,1129.17l-739.834,-0c-45.375,-0 -82.166,-36.792 -82.166,-82.167l-0,-964.833c-0,-45.375 36.791,-82.167 82.166,-82.167l739.834,-0c45.375,-0 82.166,36.792 82.166,82.167l0,964.833c0,45.375 -36.791,82.167 -82.166,82.167Z" style="fill-rule:nonzero;"/>
            <path d="M3561.58,1129.17l-739.833,-0c-45.375,-0 -82.167,-36.792 -82.167,-82.167l0,-964.833c0,-45.375 36.792,-82.167 82.167,-82.167l739.833,-0c45.375,-0 82.167,36.792 82.167,82.167l-0,964.833c-0,45.375 -36.792,82.167 -82.167,82.167Z" style="fill-rule:nonzero;"/>
            <path d="M4597,1129.17l-739.833,-0c-45.375,-0 -82.167,-36.792 -82.167,-82.167l-0,-964.833c-0,-45.375 36.792,-82.167 82.167,-82.167l739.833,-0c45.375,-0 82.167,36.792 82.167,82.167l-0,964.833c-0,45.375 -36.792,82.167 -82.167,82.167Z" style="fill-rule:nonzero;"/>
            <circle cx="5345.83" cy="566.667" r="562.5"/>
            <path d="M1480.33,0.917l-544,-0c-45.375,-0 -82.166,36.791 -82.166,82.166l-0,237.959c-0,40.25 -32.667,72.916 -72.917,72.916c-40.25,0 -72.917,-32.666 -72.917,-72.916l0,-237.959c0,-45.375 -36.791,-82.166 -82.166,-82.166l-544,-0c-45.375,-0 -82.167,36.791 -82.167,82.166l-0,964.834c-0,45.375 36.792,82.166 82.167,82.166l544,0c45.375,0 82.166,-36.791 82.166,-82.166l0,-237.959c0,-40.291 32.667,-72.916 72.917,-72.916c40.25,-0 72.917,32.625 72.917,72.916l-0,237.959c-0,45.375 36.791,82.166 82.166,82.166l544,0c45.375,0 82.167,-36.791 82.167,-82.166l-0,-964.792c-0,-45.417 -36.792,-82.208 -82.167,-82.208Z" style="fill-rule:nonzero;"/>
        </g>
    </g>
</svg>